<svg xmlns="http://www.w3.org/2000/svg" viewBox="0 0 16 16"><defs><style>.cls-1{fill:#f07e26;}.cls-2{fill:#fff;}</style></defs><title>Asset 1</title><g id="Layer_2" data-name="Layer 2"><g id="Layer_1-2" data-name="Layer 1"><circle class="cls-1" cx="8" cy="8" r="8"/><path class="cls-2" d="M10.83,12.11a2.19,2.19,0,0,1-1.64-.76A7.71,7.71,0,0,1,9.3,8.56C8.44,10,7.85,12.11,7.71,12.11a2.27,2.27,0,0,1-1.36-.69,21.63,21.63,0,0,1,.8-5.34c-2.34-.26-5.78-.52-5.81.38,0,.19-.38.25-.37,0,0-1.57.52-1.81,1.61-1.81a27.77,27.77,0,0,1,4.83.7c.32-.88.72-1.49,1.19-1.49a1.68,1.68,0,0,1,1.6,1.67c0,.6-.6.76-.93.76l-.72-.07a21.09,21.09,0,0,0-.79,4.32A18.66,18.66,0,0,1,9.92,6.64c.3-.08,1.27.17,1.27.32a13.62,13.62,0,0,0-.72,3.61c0,.39,0,.64.21.64.46,0,1.47-3.17,1.63-3.17C12.8,8,11.71,12.11,10.83,12.11ZM8.75,5.63c.54,0,.78-.9.59-.9S9,5.09,8.75,5.63Z"/></g></g></svg>