<?xml version="1.0" encoding="UTF-8"?>
<svg width="10px" height="40px" viewBox="0 0 10 40" version="1.1" xmlns="http://www.w3.org/2000/svg" xmlns:xlink="http://www.w3.org/1999/xlink">
    <!-- Generator: Sketch 42 (36781) - http://www.bohemiancoding.com/sketch -->
    <title>Facebook black</title>
    <desc>Created with Sketch.</desc>
    <defs></defs>
    <g id="Help4foreigners-ENG" stroke="none" stroke-width="1" fill="none" fill-rule="evenodd">
        <g id="Help4-ENG" transform="translate(-152.000000, -3659.000000)">
            <g id="Team" transform="translate(150.000000, 2976.000000)">
                <g id="Social-Header" transform="translate(2.000000, 683.000000)">
                    <g id="Facebook-black">
                        <path d="M2.21556886,20 L2.21556886,10.5558026 L0,10.5558026 L0,6.91640729 L2.21556886,6.91640729 L2.21556886,4.73321476 C2.21556886,1.7663406 3.46640053,0 7.01929474,0 L9.97893103,0 L9.97893103,3.63939529 L8.13040585,3.63939529 C6.74650699,3.63939529 6.65446884,4.14739884 6.65446884,5.09670965 L6.64892437,6.91640729 L10,6.91640729 L9.60745176,10.5558026 L6.64892437,10.5558026 L6.64892437,20 L2.21556886,20 Z" fill="#454545"></path>
                        <path d="M2.21556886,40 L2.21556886,30.5558026 L0,30.5558026 L0,26.9164073 L2.21556886,26.9164073 L2.21556886,24.7332148 C2.21556886,21.7663406 3.46640053,20 7.01929474,20 L9.97893103,20 L9.97893103,23.6393953 L8.13040585,23.6393953 C6.74650699,23.6393953 6.65446884,24.1473988 6.65446884,25.0967096 L6.64892437,26.9164073 L10,26.9164073 L9.60745176,30.5558026 L6.64892437,30.5558026 L6.64892437,40 L2.21556886,40 Z" fill="#727272"></path>
                    </g>
                </g>
            </g>
        </g>
    </g>
</svg>