<?xml version="1.0" encoding="UTF-8"?>
<svg width="20px" height="40px" viewBox="0 0 20 40" version="1.1" xmlns="http://www.w3.org/2000/svg" xmlns:xlink="http://www.w3.org/1999/xlink">
    <!-- Generator: Sketch 42 (36781) - http://www.bohemiancoding.com/sketch -->
    <title>Instagram</title>
    <desc>Created with Sketch.</desc>
    <defs></defs>
    <g id="Help4foreigners-Presentation" stroke="none" stroke-width="1" fill="none" fill-rule="evenodd">
        <g id="Social" transform="translate(-597.000000, -841.000000)" fill-rule="nonzero">
            <g id="Social-Header" transform="translate(460.000000, 841.000000)">
                <g id="Instagram" transform="translate(137.000000, 0.000000)">
                    <path d="M10.027027,6.7027027 C8.21621622,6.7027027 6.72972973,8.18918919 6.72972973,10 C6.72972973,11.8108108 8.21621622,13.2972973 10.027027,13.2972973 C11.8378378,13.2972973 13.3243243,11.8108108 13.3243243,10 C13.3243243,8.18918919 11.8378378,6.7027027 10.027027,6.7027027 Z" id="Shape" fill="#FFFFFF"></path>
                    <g>
                        <path d="M13.4324324,0.243243243 L6.62162162,0.243243243 C3.10810811,0.243243243 0.243243243,3.10810811 0.243243243,6.62162162 L0.243243243,13.4054054 C0.243243243,16.9189189 3.10810811,19.7837838 6.62162162,19.7837838 L13.4054054,19.7837838 C16.9189189,19.7837838 19.7837838,16.9189189 19.7837838,13.4054054 L19.7837838,6.59459459 C19.7837838,3.10810811 16.9189189,0.243243243 13.4324324,0.243243243 Z M10.027027,15.0810811 C7.21621622,15.0810811 4.94594595,12.8108108 4.94594595,10 C4.94594595,7.18918919 7.21621622,4.91891892 10.027027,4.91891892 C12.8378378,4.91891892 15.1081081,7.18918919 15.1081081,10 C15.1081081,12.8108108 12.8378378,15.0810811 10.027027,15.0810811 Z M15.027027,6.16216216 C14.3513514,6.16216216 13.7837838,5.59459459 13.7837838,4.91891892 C13.7837838,4.24324324 14.3513514,3.67567568 15.027027,3.67567568 C15.7027027,3.67567568 16.2702703,4.24324324 16.2702703,4.91891892 C16.2432432,5.62162162 15.7027027,6.16216216 15.027027,6.16216216 Z" id="Shape" fill="#FFFFFF"></path>
                        <g id="Instagram-Copy" transform="translate(0.000000, 20.000000)" fill="#DB6F1D">
                            <path d="M10.027027,6.7027027 C8.21621622,6.7027027 6.72972973,8.18918919 6.72972973,10 C6.72972973,11.8108108 8.21621622,13.2972973 10.027027,13.2972973 C11.8378378,13.2972973 13.3243243,11.8108108 13.3243243,10 C13.3243243,8.18918919 11.8378378,6.7027027 10.027027,6.7027027 Z" id="Shape"></path>
                            <path d="M13.4324324,0.243243243 L6.62162162,0.243243243 C3.10810811,0.243243243 0.243243243,3.10810811 0.243243243,6.62162162 L0.243243243,13.4054054 C0.243243243,16.9189189 3.10810811,19.7837838 6.62162162,19.7837838 L13.4054054,19.7837838 C16.9189189,19.7837838 19.7837838,16.9189189 19.7837838,13.4054054 L19.7837838,6.59459459 C19.7837838,3.10810811 16.9189189,0.243243243 13.4324324,0.243243243 Z M10.027027,15.0810811 C7.21621622,15.0810811 4.94594595,12.8108108 4.94594595,10 C4.94594595,7.18918919 7.21621622,4.91891892 10.027027,4.91891892 C12.8378378,4.91891892 15.1081081,7.18918919 15.1081081,10 C15.1081081,12.8108108 12.8378378,15.0810811 10.027027,15.0810811 Z M15.027027,6.16216216 C14.3513514,6.16216216 13.7837838,5.59459459 13.7837838,4.91891892 C13.7837838,4.24324324 14.3513514,3.67567568 15.027027,3.67567568 C15.7027027,3.67567568 16.2702703,4.24324324 16.2702703,4.91891892 C16.2432432,5.62162162 15.7027027,6.16216216 15.027027,6.16216216 Z" id="Shape"></path>
                        </g>
                    </g>
                </g>
            </g>
        </g>
    </g>
</svg>