<?xml version="1.0" encoding="UTF-8"?>
<svg width="149px" height="28px" viewBox="0 0 149 28" version="1.1" xmlns="http://www.w3.org/2000/svg" xmlns:xlink="http://www.w3.org/1999/xlink">
    <!-- Generator: Sketch 42 (36781) - http://www.bohemiancoding.com/sketch -->
    <title>Logo header black</title>
    <desc>Created with Sketch.</desc>
    <defs>
        <polygon id="path-1" points="10.4642731 24.3478261 0.126253687 24.3478261 0.126253687 0.132775634 10.4642731 0.132775634"></polygon>
        <polygon id="path-3" points="14.1380543 0.020376087 14.1380543 11.7543543 0.0255559426 11.7543543 0.0255559426 0.020376087 14.1380543 0.020376087"></polygon>
    </defs>
    <g id="Header" stroke="none" stroke-width="1" fill="none" fill-rule="evenodd">
        <g transform="translate(-150.000000, -48.000000)" id="Group">
            <g transform="translate(150.000000, 48.000000)">
                <g id="Logo-header-black">
                    <path d="M19.5600055,4.36229348 C20.9295537,4.30294565 21.5247904,2.10707609 21.0484789,2.10707609 C20.6019369,2.10707609 20.0958559,2.99729348 19.5600055,4.36229348 M24.7995844,20.5945326 C22.9836469,20.5945326 20.9295537,19.3779022 20.6614758,18.69525 C20.2447033,17.6864891 20.4532422,14.4814022 20.9295537,11.6920543 C18.7859994,15.4309674 17.297526,20.5945326 16.9401398,20.5945326 C15.9875168,20.5945326 13.814193,19.5261196 13.5164984,18.8732935 C13.0401869,17.3599239 14.6478908,8.54646739 15.5409748,5.48990217 C9.64631496,4.83707609 0.983094672,4.18425 0.923708402,6.43946739 C0.89378627,6.91440217 -0.0289145492,7.06277174 0.000702254098,6.52848913 C0.0603938525,2.5818587 1.31071148,1.98822826 4.04950246,1.98822826 C7.59222172,1.98822826 12.5342586,2.99729348 16.1959031,3.7391413 C16.9998314,1.54327174 18.0118406,7.60869565e-05 19.2027719,7.60869565e-05 C21.7928682,7.60869565e-05 23.2218027,2.46316304 23.2218027,4.18425 C23.2218027,5.69761957 21.7034072,6.08353261 20.8698621,6.08353261 C20.7210148,6.08353261 20.036317,6.02418478 19.0539246,5.90548913 C17.7141459,11.1579239 17.0592176,14.7486196 17.0592176,16.7367717 C17.0592176,15.9947717 21.8821766,6.88472826 22.5073355,6.88472826 C23.2515721,6.67701087 25.6928211,7.30016304 25.6928211,7.68592391 C25.6928211,7.80461957 23.8767309,12.7604674 23.8767309,16.7367717 C23.8767309,17.7160109 23.9958088,18.3393152 24.4125814,18.3393152 C25.5737432,18.3393152 28.104148,10.3864022 28.5209205,10.3864022 C29.7414686,10.3864022 27.0026777,20.5945326 24.7995844,20.5945326" id="Fill-1" fill="#454545"></path>
                    <path d="M29.3679153,14.9689826 C30.167111,14.9689826 32.1775423,13.3754174 32.1775423,11.7820043 C32.1775423,11.395787 32.0807534,11.0818522 31.8627493,11.0818522 C31.0391274,11.0818522 29.8037708,12.6270261 29.3679153,14.9689826 M30.6032718,20.7152217 C28.6169614,20.7152217 27.1637534,19.1942435 26.8972022,18.6630043 C25.2745372,15.4518304 27.648156,9.19854783 30.7002134,9.19854783 C32.5167616,9.19854783 33.7278446,11.1058957 33.7278446,12.6512217 C33.7278446,14.7274826 32.2744839,15.8864391 30.1187165,15.8864391 C29.8765915,15.8864391 29.5617985,15.8140043 29.2709737,15.6933304 C29.2225792,16.007113 29.1984583,16.3450913 29.1984583,16.6832217 C29.1984583,18.0110913 29.8523179,19.0251783 30.5547247,19.0251783 C33.2675628,19.0251783 34.2122472,12.2890478 35.2779942,12.2890478 C35.8350649,12.2890478 34.4059778,20.7152217 30.6032718,20.7152217" id="Fill-3" fill="#454545"></path>
                    <path d="M36.5131523,17.4557783 C36.5131523,18.2525609 36.6099412,18.7594522 36.9490078,18.7594522 C37.8936922,18.7594522 39.952518,12.2890174 40.2917373,12.2890174 C41.2848162,12.2890174 39.0563807,20.5945174 37.2639535,20.5945174 C35.7864719,20.5945174 34.1151072,19.6046261 33.8971031,19.0493435 C33.0736338,17.0453652 35.7138039,4.82853913 36.6583357,3.88688696 C36.9975549,3.54875652 39.952518,4.49056087 39.6861195,4.7319087 C38.6446461,5.77003913 36.5131523,14.2204087 36.5131523,17.4557783" id="Fill-5" fill="#454545"></path>
                    <path d="M45.2325834,12.2890022 C45.2325834,11.5164152 45.1599154,10.9853283 44.7967279,10.9853283 C44.3121725,10.9853283 42.6893549,14.4136543 41.7932176,18.4456543 C41.8898539,18.5422848 42.3260148,18.6631109 42.5682924,18.6631109 C43.2705465,18.6631109 45.2325834,15.7657196 45.2325834,12.2890022 M44.5301766,20.546263 C43.5370977,20.546263 42.3260148,19.9667848 41.5750609,19.4597413 C40.7758652,22.8883717 40.7758652,26.1960239 40.5578611,26.1960239 C39.8069072,26.1960239 38.6684922,25.3266543 38.4504881,24.7715239 C37.8207494,23.2987848 39.8069072,10.4298935 40.7514389,9.48839348 C41.0906582,9.15026304 43.4401561,9.75393696 43.4401561,10.0919152 C43.4401561,10.1401543 43.2949727,10.8403065 43.0526951,11.8785891 C43.7067074,10.3092196 44.4089615,9.1744587 45.1599154,9.1744587 C47.1460732,9.1744587 47.6547494,10.1401543 47.8486326,10.695437 C49.0111684,13.7376978 46.3952719,20.546263 44.5301766,20.546263" id="Fill-7" fill="#454545"></path>
                    <path d="M54.7517293,12.5062609 C55.8174762,12.385587 56.9558912,12.3373478 57.9732436,12.3373478 C58.5545879,9.80213043 59.3053891,7.43613043 59.74155,7.00136957 C60.0804639,6.6633913 62.8175756,7.60504348 62.551177,7.84654348 C62.1394424,8.25695652 61.4852775,10.1643043 60.879965,12.4096304 C61.0494219,12.4338261 61.1704844,12.4580217 61.194758,12.4580217 C61.3884885,12.6511304 61.8728912,14.1240217 61.2431525,14.7517391 L60.2743471,14.7517391 C59.6687293,17.2626087 59.2084475,19.677 59.2084475,20.6668913 C59.2084475,21.4394783 57.3192314,19.7978261 57.1013799,19.266587 C56.8591023,18.7111522 57.0528328,16.9004348 57.416173,14.872413 C53.9766545,15.0897174 51.8208871,15.5243261 51.6757037,15.6932391 C51.4575469,15.6932391 50.8278082,13.7618478 51.0700859,13.5203478 C51.6512775,12.9408696 56.9801648,5.2388913 56.9801648,4.12832609 C56.9801648,2.92113043 58.8695336,4.85267391 58.8695336,5.26308696 C58.8695336,6.6633913 56.447215,10.2367391 54.7517293,12.5062609" id="Fill-9" fill="#454545"></path>
                    <path d="M88.2017408,12.2649283 C87.8626742,12.2649283 85.8038484,18.7595587 84.8591639,18.7595587 C84.5200973,18.7595587 84.4231557,18.2283196 84.4231557,17.4557326 C84.4231557,14.0998413 85.7310277,11.3232761 85.7310277,10.5989283 C85.7310277,9.29510217 83.5511393,9.17442826 81.8799273,9.0295587 C82.0009898,7.72573261 81.6619232,7.19464565 81.225915,7.19464565 C80.3055041,7.19464565 79.845375,8.13614565 79.845375,8.90873261 C79.845375,9.29510217 79.9905584,9.63308043 80.2812305,9.8263413 C79.9420113,11.3715152 79.6514918,13.6892761 78.9005379,14.6309283 C78.949085,14.3169935 78.9733586,13.9791674 78.9733586,13.6652326 C78.9733586,11.2748848 77.6167869,9.19862391 75.2430154,9.19862391 C73.1295359,9.19862391 71.2418463,12.0591891 70.7830912,14.9282761 C71.2813863,14.6851022 71.7686895,14.5342978 72.2155369,14.5342978 C72.7953545,14.54845 73.3170072,14.811863 73.8198822,15.3965152 C74.2381814,13.3032109 75.1828658,11.0819283 76.0666373,11.0819283 C76.8901066,11.0819283 76.8417121,13.3996891 76.3330359,15.5483848 L75.8970277,15.5483848 C75.0494375,15.5483848 74.9282223,17.0935587 75.8727541,17.0935587 C75.4611721,18.2042761 74.9282223,19.0252543 74.370999,19.0252543 C73.7243145,19.0252543 73.5293627,18.0702109 73.6197398,16.8226891 C73.4634119,16.7462978 73.2863217,16.7073413 73.0875533,16.7073413 C72.4752182,16.6951674 71.6830451,16.9920587 70.7898084,17.4409717 C70.8746895,17.8761891 71.0084232,18.2881239 71.1980318,18.6630804 C71.4403094,19.1941674 72.9176383,20.7151457 74.6132766,20.7151457 C76.2603678,20.7151457 77.7137285,18.8803848 78.4404088,16.6831457 C80.5235082,15.7898848 80.8625748,13.2064283 81.4439191,11.0575804 C81.540708,10.7197543 81.5649816,10.5748848 81.6376496,10.26095 C82.1463258,10.3333848 82.6307285,10.4540587 82.824459,10.671363 C83.0908576,10.9369065 80.8868484,16.8280152 81.8072592,19.0492978 C82.0252633,19.6045804 83.6723545,20.5944717 85.1741096,20.5944717 C86.9663842,20.5944717 89.1949723,12.2649283 88.2017408,12.2649283" id="Fill-11" fill="#454545"></path>
                    <g id="Group-15" transform="translate(63.355533, 3.610630)">
                        <mask id="mask-2" fill="white">
                            <use xlink:href="#path-1"></use>
                        </mask>
                        <g id="Clip-14"></g>
                        <path d="M2.65917674,23.0199413 C2.02943801,22.8992674 2.39277818,17.0080065 3.33730994,17.0080065 C4.06399027,17.0080065 3.62813473,23.1165717 2.65917674,23.0199413 M8.85992777,10.923637 C8.41308043,10.923637 7.92592982,11.0744413 7.42763473,11.3177674 C5.84649436,12.0897457 4.15451998,13.8032239 3.28891547,14.66605 C3.7975917,10.802963 6.07442162,2.35259348 7.57617674,1.07296304 C7.84257531,0.831615217 4.91188576,-0.134232609 4.5726665,0.203745652 C2.53811424,2.2801587 0.237010758,14.4487457 0.14006916,18.7222457 C0.0916746926,20.291463 0.164342725,21.6919196 0.455014857,22.7302022 C0.624624488,23.3579196 1.85998105,24.347963 3.07091137,24.347963 C4.71800256,24.347963 5.71108145,17.4910065 4.69388166,16.2836587 C4.2335999,15.7283761 4.40320953,15.5593109 4.59694006,15.438637 C5.5910876,14.8536804 6.56096158,14.2693326 7.43435195,13.8303109 C8.32743596,13.3813978 9.11976178,13.0845065 9.73194416,13.0968326 C9.9307126,13.0968326 10.1079554,13.135637 10.2641306,13.2120283 C10.2966481,12.7641804 10.3658048,12.2787457 10.4642731,11.7858543 C9.96155072,11.2012022 9.43974539,10.9377891 8.85992777,10.923637" id="Fill-13" fill="#454545" mask="url(#mask-2)"></path>
                    </g>
                    <path d="M89.9214542,14.9689826 C90.7208026,14.9689826 92.7310813,13.3754174 92.7310813,11.7820043 C92.7310813,11.395787 92.634445,11.0818522 92.4162882,11.0818522 C91.5926663,11.0818522 90.3574624,12.6270261 89.9214542,14.9689826 M91.1568108,20.7152217 C89.170653,20.7152217 87.7172923,19.1942435 87.4507411,18.6630043 C85.8280761,15.4518304 88.201695,9.19854783 91.2537524,9.19854783 C93.0703005,9.19854783 94.2813835,11.1058957 94.2813835,12.6512217 C94.2813835,14.7274826 92.8280228,15.8864391 90.6724081,15.8864391 C90.4301304,15.8864391 90.1153374,15.8140043 89.8245126,15.6933304 C89.7761181,16.007113 89.7519972,16.3450913 89.7519972,16.6832217 C89.7519972,18.0110913 90.4058569,19.0251783 91.1082636,19.0251783 C93.8212544,19.0251783 94.7657862,12.2890478 95.8315331,12.2890478 C96.3886038,12.2890478 94.9596694,20.7152217 91.1568108,20.7152217" id="Fill-16" fill="#454545"></path>
                    <path d="M96.7758206,7.29118478 C96.7758206,6.10818478 97.47838,4.22488043 97.7688995,3.9351413 C98.0595716,3.64540217 100.312281,3.9351413 100.312281,4.8043587 C100.312281,5.21477174 99.004256,8.40190217 98.8105255,8.40190217 C98.3745173,8.40190217 96.7758206,8.16040217 96.7758206,7.29118478 M97.8415675,20.5945326 C96.364086,20.5945326 94.6927212,19.6046413 94.4748698,19.0493587 C93.8449784,17.5764674 95.1046085,10.4539674 96.0250194,9.51246739 C96.364086,9.17448913 98.7378575,9.75396739 98.7378575,10.0917935 C98.7378575,10.1884239 97.0907663,14.2204239 97.0907663,17.4557935 C97.0907663,18.2525761 97.1875552,18.7594674 97.5267745,18.7594674 C98.4713063,18.7594674 100.530285,12.2890326 100.869199,12.2890326 C101.86243,12.2890326 99.6341474,20.5945326 97.8415675,20.5945326" id="Fill-18" fill="#454545"></path>
                    <path d="M104.090728,23.081237 C103.727388,23.1055848 103.364048,23.1296283 103.025134,23.1296283 C103.12177,23.3951717 103.267106,23.6126283 103.48511,23.6126283 C103.703267,23.6126283 103.921271,23.3951717 104.090728,23.081237 M105.858882,13.06165 L106.149554,11.7095848 C106.028492,11.1299543 105.786214,10.5988674 105.447147,10.5988674 C104.260185,10.5988674 102.492032,14.4619543 102.492032,17.4800196 C102.492032,18.27665 102.588973,18.7836935 102.928192,18.7836935 C103.533658,18.7836935 104.865803,15.4760413 105.858882,13.06165 M100.627089,21.9708239 C101.353617,21.9948674 102.75843,21.7535196 104.575284,21.536063 C104.793288,20.5221283 104.986866,19.2424978 105.108081,17.624737 C104.429948,19.290737 103.678994,20.6186065 103.097649,20.6186065 C101.111339,20.6186065 100.069866,19.6287152 99.8762877,19.0734326 C99.6824045,18.5665413 99.5854629,17.9386717 99.5854629,17.262563 C99.5854629,13.9308674 100.990276,9.24680217 104.18767,9.24680217 C105.350206,9.24680217 106.052765,9.48830217 106.609836,10.0918239 C106.706777,9.82628043 106.82784,9.63301957 106.948902,9.51234565 C107.287969,9.17451957 109.661741,9.75384565 109.661741,10.0918239 C109.661741,10.1884543 108.571873,14.5585848 107.627188,21.2222804 C108.813998,21.1498457 110.073475,21.12565 111.3815,21.1738891 C113.609935,21.2705196 114.603014,21.7291717 114.603014,24.9403457 C114.603014,25.3751065 113.85206,25.2300848 113.85206,24.8440196 C113.85206,23.443563 110.582151,23.081237 107.263848,23.03315 C106.779293,24.7230413 105.907276,25.88215 104.478342,25.88215 C103.388322,25.88215 102.007629,24.047237 101.886566,23.2022152 C101.18416,23.2262587 100.699604,23.2744978 100.578542,23.2744978 C99.9004086,23.2503022 98.665052,23.03315 98.6893256,21.8983891 C98.7134465,21.2464761 98.7134465,21.2705196 98.7619936,21.2947152 C98.8587826,21.2947152 99.1737283,21.9224326 100.627089,21.9708239" id="Fill-20" fill="#454545"></path>
                    <path d="M118.720666,20.5945174 C117.243184,20.5945174 115.596093,19.6046261 115.378089,19.0493435 C115.014901,18.2283652 115.208479,15.620713 115.596093,13.3513435 C113.85206,16.4176478 112.616856,20.5945174 112.326184,20.5945174 C111.551109,20.5945174 109.782803,19.7253 109.564799,19.194213 C108.93506,17.6972783 110.3643,10.4539522 111.284711,9.51245217 C111.623777,9.17447391 113.997549,9.75395217 113.997549,10.0917783 C113.997549,10.1884087 112.447247,14.2204087 112.447247,17.4557783 C112.447247,16.8521043 116.395441,9.44001739 116.879844,9.44001739 C117.461188,9.27095217 119.47162,9.77799565 119.47162,10.0917783 C119.47162,10.1884087 117.993985,14.2204087 117.993985,17.4557783 C117.993985,18.2525609 118.066806,18.7594522 118.430146,18.7594522 C119.326284,18.7594522 121.40923,12.2890174 121.74845,12.2890174 C122.741528,12.2890174 120.513093,20.5945174 118.720666,20.5945174" id="Fill-22" fill="#454545"></path>
                    <path d="M123.46801,14.9689826 C124.267359,14.9689826 126.277637,13.3754174 126.277637,11.7820043 C126.277637,11.395787 126.181001,11.0818522 125.962844,11.0818522 C125.139222,11.0818522 123.903866,12.6270261 123.46801,14.9689826 M124.703367,20.7152217 C122.717209,20.7152217 121.263848,19.1942435 120.997297,18.6630043 C119.374632,15.4518304 121.748251,9.19854783 124.800309,9.19854783 C126.616857,9.19854783 127.82794,11.1058957 127.82794,12.6512217 C127.82794,14.7274826 126.374579,15.8864391 124.218964,15.8864391 C123.976687,15.8864391 123.661894,15.8140043 123.371069,15.6933304 C123.322674,16.007113 123.298553,16.3450913 123.298553,16.6832217 C123.298553,18.0110913 123.952413,19.0251783 124.65482,19.0251783 C127.367811,19.0251783 128.312342,12.2890478 129.378089,12.2890478 C129.93516,12.2890478 128.506226,20.7152217 124.703367,20.7152217" id="Fill-24" fill="#454545"></path>
                    <path d="M133.955748,20.5945174 C132.45384,20.5945174 130.806902,19.6046261 130.588745,19.0493435 C129.668487,16.8280609 131.872496,10.9369522 131.606097,10.6714087 C131.412367,10.4539522 131.024906,10.3332783 130.516229,10.2609957 C130.443561,10.5747783 130.419288,10.7196478 130.322346,11.0576261 C129.716728,13.3997348 128.820591,15.862213 128.530072,16.7554739 L127.125105,16.7554739 C127.948575,14.920713 128.723802,11.9026478 129.15981,9.82623478 C128.869138,9.63312609 128.723802,9.29514783 128.723802,8.90877826 C128.723802,8.1361913 129.183931,7.19453913 130.104342,7.19453913 C130.54035,7.19453913 130.87957,7.72577826 130.758507,9.02960435 C132.429719,9.17447391 134.512666,9.29514783 134.512666,10.5988217 C134.512666,11.3231696 133.204794,14.0997348 133.204794,17.4557783 C133.204794,18.2283652 133.301736,18.7594522 133.640802,18.7594522 C134.585487,18.7594522 136.644312,12.2649739 136.983379,12.2649739 C137.976458,12.2649739 135.748022,20.5945174 133.955748,20.5945174" id="Fill-26" fill="#454545"></path>
                    <g id="Group-30" transform="translate(134.802254, 8.936717)">
                        <mask id="mask-4" fill="white">
                            <use xlink:href="#path-3"></use>
                        </mask>
                        <g id="Clip-29"></g>
                        <path d="M3.85253545,8.32587609 C3.17440225,8.73628913 2.5202373,9.24333261 1.64837357,9.38820217 C1.866225,9.70213696 2.20544426,9.9194413 2.76251496,9.9194413 C3.48919529,9.9194413 3.77971475,9.24333261 3.85253545,8.32587609 M3.82826189,6.78070217 C3.75559385,5.45283261 3.53758975,4.07657174 3.65865225,3.35222391 C2.78678852,4.96983261 2.13262357,6.75650652 1.59982643,8.10857174 C2.3991748,7.84302826 3.10158156,7.3119413 3.82826189,6.78070217 M6.8801666,1.15513696 C6.8801666,1.15513696 6.34736947,2.28989783 6.37164303,4.94578913 C7.3161748,4.26983261 8.35780082,3.54548478 9.47209488,2.89357174 C11.3855846,1.75881087 12.669183,1.83109348 14.0741492,4.72848478 C14.3405477,5.18728913 13.710809,5.62174565 13.3717424,4.96983261 C12.669183,3.52128913 9.22981721,5.13905 6.44431107,6.73231087 C6.5411,9.43659348 6.03242377,11.7543543 3.70719939,11.7543543 C1.0911502,11.7543543 0.0255559426,10.11255 0.0255559426,8.63981087 C0.0255559426,8.08452826 0.291954508,7.6981587 0.437290574,7.60152826 C1.04275574,5.95972391 2.3991748,1.32420217 4.57921578,0.020376087 C5.18483361,0.020376087 6.8801666,0.599854348 6.8801666,1.15513696" id="Fill-28" fill="#454545" mask="url(#mask-4)"></path>
                    </g>
                </g>
            </g>
        </g>
    </g>
</svg>