<?xml version="1.0" encoding="UTF-8"?>
<svg width="22px" height="15px" viewBox="0 0 22 15" version="1.1" xmlns="http://www.w3.org/2000/svg" xmlns:xlink="http://www.w3.org/1999/xlink">
    <!-- Generator: Sketch 42 (36781) - http://www.bohemiancoding.com/sketch -->
    <title>menu-alt</title>
    <desc>Created with Sketch.</desc>
    <defs></defs>
    <g id="Help4foreigners-ENG" stroke="none" stroke-width="1" fill="none" fill-rule="evenodd">
        <g id="Help4-ENG" transform="translate(-104.000000, -52.000000)" fill-rule="nonzero" fill="#454545">
            <g id="menu-alt" transform="translate(104.000000, 52.000000)">
                <g id="Layer_1">
                    <path d="M1.57142857,3 L20.4285714,3 C21.296,3 22,2.328 22,1.5 C22,0.672 21.296,0 20.4285714,0 L1.57142857,0 C0.704,0 0,0.672 0,1.5 C0,2.328 0.704,3 1.57142857,3 Z M20.4285714,6 L1.57142857,6 C0.704,6 0,6.672 0,7.5 C0,8.328 0.704,9 1.57142857,9 L20.4285714,9 C21.296,9 22,8.328 22,7.5 C22,6.672 21.296,6 20.4285714,6 Z M20.4285714,12 L1.57142857,12 C0.704,12 0,12.672 0,13.5 C0,14.328 0.704,15 1.57142857,15 L20.4285714,15 C21.296,15 22,14.328 22,13.5 C22,12.672 21.296,12 20.4285714,12 Z" id="Shape"></path>
                </g>
            </g>
        </g>
    </g>
</svg>