<?xml version="1.0" encoding="UTF-8"?>
<svg width="24px" height="40px" viewBox="0 0 24 40" version="1.1" xmlns="http://www.w3.org/2000/svg" xmlns:xlink="http://www.w3.org/1999/xlink">
    <!-- Generator: Sketch 42 (36781) - http://www.bohemiancoding.com/sketch -->
    <title>Twiiter</title>
    <desc>Created with Sketch.</desc>
    <defs></defs>
    <g id="Help4foreigners-ENG" stroke="none" stroke-width="1" fill="none" fill-rule="evenodd">
        <g id="Desktop-HD" transform="translate(-687.000000, -695.000000)">
            <g id="Twiiter" transform="translate(687.000000, 695.000000)">
                <path d="M21.1719026,3.16308308 C22.1884928,2.53732409 22.9692905,1.54868205 23.3363925,0.37002643 C22.3847511,0.948639189 21.3314508,1.36866919 20.2089658,1.5943996 C19.3109778,0.612900921 18.0317684,0 16.6156018,0 C13.8962231,0 11.6907872,2.26016144 11.6907872,5.04893207 C11.6907872,5.44610329 11.734557,5.83041646 11.8192729,6.20044289 C7.72749735,5.99042789 4.09883516,3.97885563 1.67172609,0.924351739 C1.24673491,1.67011929 1.00529474,2.53732409 1.00529474,3.46310451 C1.00529474,5.21465819 1.87504412,6.76048289 3.19519944,7.6648332 C2.38757501,7.63911708 1.62795623,7.411958 0.965760678,7.03335953 L0.965760678,7.09764983 C0.965760678,9.54353882 2.66148959,11.5836845 4.91493117,12.0480034 C4.50123544,12.163726 4.06777268,12.2251589 3.61736675,12.2251589 C3.30109425,12.2251589 2.9918814,12.1937281 2.69114013,12.1337238 C3.31803742,14.1395814 5.13660431,15.5996857 7.29121073,15.6411172 C5.60536534,16.994071 3.48182139,17.8012715 1.17472644,17.8012715 C0.777973879,17.8012715 0.385457113,17.7784127 0,17.7312665 C2.17860925,19.164226 4.76667843,20 7.54818214,20 C16.6043064,20 21.5573597,12.3065933 21.5573597,5.63468819 C21.5573597,5.41467248 21.551712,5.19894278 21.5432404,4.98178441 C22.5047653,4.27030502 23.3406283,3.38024145 24,2.36874062 C23.1175432,2.7687692 22.1673138,3.04021716 21.1719026,3.16308308 Z" id="Twitter-header" fill="#FFFFFF"></path>
                <path d="M21.1719026,23.1630831 C22.1884928,22.5373241 22.9692905,21.548682 23.3363925,20.3700264 C22.3847511,20.9486392 21.3314508,21.3686692 20.2089658,21.5943996 C19.3109778,20.6129009 18.0317684,20 16.6156018,20 C13.8962231,20 11.6907872,22.2601614 11.6907872,25.0489321 C11.6907872,25.4461033 11.734557,25.8304165 11.8192729,26.2004429 C7.72749735,25.9904279 4.09883516,23.9788556 1.67172609,20.9243517 C1.24673491,21.6701193 1.00529474,22.5373241 1.00529474,23.4631045 C1.00529474,25.2146582 1.87504412,26.7604829 3.19519944,27.6648332 C2.38757501,27.6391171 1.62795623,27.411958 0.965760678,27.0333595 L0.965760678,27.0976498 C0.965760678,29.5435388 2.66148959,31.5836845 4.91493117,32.0480034 C4.50123544,32.163726 4.06777268,32.2251589 3.61736675,32.2251589 C3.30109425,32.2251589 2.9918814,32.1937281 2.69114013,32.1337238 C3.31803742,34.1395814 5.13660431,35.5996857 7.29121073,35.6411172 C5.60536534,36.994071 3.48182139,37.8012715 1.17472644,37.8012715 C0.777973879,37.8012715 0.385457113,37.7784127 0,37.7312665 C2.17860925,39.164226 4.76667843,40 7.54818214,40 C16.6043064,40 21.5573597,32.3065933 21.5573597,25.6346882 C21.5573597,25.4146725 21.551712,25.1989428 21.5432404,24.9817844 C22.5047653,24.270305 23.3406283,23.3802414 24,22.3687406 C23.1175432,22.7687692 22.1673138,23.0402172 21.1719026,23.1630831 Z" id="Twitter-header-Copy" fill="#DB6F1D"></path>
            </g>
        </g>
    </g>
</svg>