<?xml version="1.0" encoding="UTF-8"?>
<svg width="28px" height="40px" viewBox="0 0 28 40" version="1.1" xmlns="http://www.w3.org/2000/svg" xmlns:xlink="http://www.w3.org/1999/xlink">
    <!-- Generator: Sketch 42 (36781) - http://www.bohemiancoding.com/sketch -->
    <title>Youtube</title>
    <desc>Created with Sketch.</desc>
    <defs></defs>
    <g id="Help4foreigners-ENG" stroke="none" stroke-width="1" fill="none" fill-rule="evenodd">
        <g id="Desktop-HD" transform="translate(-632.000000, -697.000000)" fill-rule="nonzero">
            <g id="Youtube" transform="translate(632.000000, 697.000000)">
                <path d="M23.2615385,0 L4.73846154,0 C2.12148149,0 0,2.18883011 0,4.88888889 L0,15.1111111 C0,17.8111699 2.12148149,20 4.73846154,20 L23.2615385,20 C25.8785185,20 28,17.8111699 28,15.1111111 L28,4.88888889 C28,2.18883011 25.8785185,0 23.2615385,0 Z M19.4836923,10.1955556 L11.0836923,14.64 C11.0171921,14.6755482 10.9375678,14.672902 10.8734228,14.6330118 C10.8092778,14.5931217 10.7698227,14.5217155 10.7692308,14.4444444 L10.7692308,5.55555556 C10.7698227,5.47828446 10.8092778,5.4068783 10.8734228,5.36698817 C10.9375678,5.32709803 11.0171921,5.32445177 11.0836923,5.36 L19.4836923,9.80444444 C19.5556235,9.84246577 19.60087,9.9188349 19.60087,10.0022222 C19.60087,10.0856095 19.5556235,10.1619787 19.4836923,10.2 L19.4836923,10.1955556 Z" fill="#FFFFFF"></path>
                <path d="M23.2615385,20 L4.73846154,20 C2.12148149,20 0,22.1888301 0,24.8888889 L0,35.1111111 C0,37.8111699 2.12148149,40 4.73846154,40 L23.2615385,40 C25.8785185,40 28,37.8111699 28,35.1111111 L28,24.8888889 C28,22.1888301 25.8785185,20 23.2615385,20 Z M19.4836923,30.1955556 L11.0836923,34.64 C11.0171921,34.6755482 10.9375678,34.672902 10.8734228,34.6330118 C10.8092778,34.5931217 10.7698227,34.5217155 10.7692308,34.4444444 L10.7692308,25.5555556 C10.7698227,25.4782845 10.8092778,25.4068783 10.8734228,25.3669882 C10.9375678,25.327098 11.0171921,25.3244518 11.0836923,25.36 L19.4836923,29.8044444 C19.5556235,29.8424658 19.60087,29.9188349 19.60087,30.0022222 C19.60087,30.0856095 19.5556235,30.1619787 19.4836923,30.2 L19.4836923,30.1955556 Z" id="Youtube-Copy" fill="#DB6F1D"></path>
            </g>
        </g>
    </g>
</svg>